HIERARCHY
ROOT Hips
{
 OFFSET 0.000000 0.000000 0.000000
 CHANNELS 6 Xposition Yposition Zposition Yrotation Xrotation Zrotation
 JOINT Chest
 {
  OFFSET 0.000000 9.585900 0.002600
  CHANNELS 3 Yrotation Xrotation Zrotation
  JOINT Chest2
  {
   OFFSET 0.000000 9.601200 -0.005300
   CHANNELS 3 Yrotation Xrotation Zrotation
   JOINT Chest3
   {
    OFFSET 0.000000 9.561800 0.000000
    CHANNELS 3 Yrotation Xrotation Zrotation
    JOINT Chest4
    {
     OFFSET 0.000000 9.552100 0.000000
     CHANNELS 3 Yrotation Xrotation Zrotation
     JOINT Neck
     {
      OFFSET 0.000000 14.453000 0.000000
      CHANNELS 3 Yrotation Xrotation Zrotation
      JOINT Head
      {
       OFFSET 0.000000 8.936500 -0.011300
       CHANNELS 3 Yrotation Xrotation Zrotation
       End Site
       {
        OFFSET 0.000000 17.073600 -0.006000
       }
      }
     }
     JOINT RightCollar
     {
      OFFSET -2.921100 9.558500 0.000000
      CHANNELS 3 Yrotation Xrotation Zrotation
      JOINT RightShoulder
      {
       OFFSET -13.519700 0.000000 0.000000
       CHANNELS 3 Yrotation Xrotation Zrotation
       JOINT RightElbow
       {
        OFFSET 0.000000 -29.696600 0.000000
        CHANNELS 3 Yrotation Xrotation Zrotation
        JOINT RightWrist
        {
         OFFSET 0.000000 -24.004700 0.000000
         CHANNELS 3 Yrotation Xrotation Zrotation
         End Site
         {
          OFFSET 0.000000 -17.728500 0.000000
         }
        }
       }
      }
     }
     JOINT LeftCollar
     {
      OFFSET 2.921100 9.558500 0.000000
      CHANNELS 3 Yrotation Xrotation Zrotation
      JOINT LeftShoulder
      {
       OFFSET 13.519700 0.000000 0.000000
       CHANNELS 3 Yrotation Xrotation Zrotation
       JOINT LeftElbow
       {
        OFFSET 0.000000 -29.696600 0.000000
        CHANNELS 3 Yrotation Xrotation Zrotation
        JOINT LeftWrist
        {
         OFFSET 0.000000 -24.004700 0.000000
         CHANNELS 3 Yrotation Xrotation Zrotation
         End Site
         {
          OFFSET 0.000000 -17.728500 0.000000
         }
        }
       }
      }
     }
    }
   }
  }
 }
 JOINT RightHip
 {
  OFFSET -7.771700 -0.012900 -0.001300
  CHANNELS 3 Yrotation Xrotation Zrotation
  JOINT RightKnee
  {
   OFFSET 0.000000 -40.869800 0.001200
   CHANNELS 3 Yrotation Xrotation Zrotation
   JOINT RightAnkle
   {
    OFFSET 0.000000 -39.717900 0.002100
    CHANNELS 3 Yrotation Xrotation Zrotation
    JOINT RightToe
    {
     OFFSET 0.000000 -4.965400 11.033500
     CHANNELS 3 Yrotation Xrotation Zrotation
     End Site
     {
      OFFSET 0.000000 -1.423100 5.872300
     }
    }
   }
  }
 }
 JOINT LeftHip
 {
  OFFSET 7.771700 -0.012900 -0.001300
  CHANNELS 3 Yrotation Xrotation Zrotation
  JOINT LeftKnee
  {
   OFFSET 0.000000 -40.869800 0.001200
   CHANNELS 3 Yrotation Xrotation Zrotation
   JOINT LeftAnkle
   {
    OFFSET 0.000000 -39.717900 0.002100
    CHANNELS 3 Yrotation Xrotation Zrotation
    JOINT LeftToe
    {
     OFFSET 0.000000 -4.965400 11.033500
     CHANNELS 3 Yrotation Xrotation Zrotation
     End Site
     {
      OFFSET 0.000000 -1.423100 5.872300
     }
    }
   }
  }
 }
}
MOTION
Frames: 16
Frame Time: 0.008333
-40.971859 62.060092 13.110431 177.256690 -50.869842 -0.712575 4.106883 27.494681 -0.017149 0.654826 4.801570 -0.026494 1.037868 7.566658 -0.027475 3.146756 22.201259 0.359745 2.530160 13.853877 4.112040 3.272413 -10.213318 6.804395 7.632668 5.204791 5.512520 1.686756 -15.521128 -14.974022 -144.860928 -53.826733 171.824297 22.978312 1.133508 -8.920029 -8.437619 0.992057 0.385806 -3.443702 -8.594701 17.534177 -175.167555 -66.081180 163.264421 -2.032210 -16.509014 5.205173 2.946244 -16.076641 -6.622656 -1.078876 61.294303 -4.892790 1.594473 -7.744518 10.386489 0.236432 -0.473054 0.108180 -4.117438 -13.153024 1.388203 26.411709 76.537363 27.041856 0.998724 -12.039757 -3.794503 0.216233 0.681494 0.089409
-40.972443 62.060596 13.110387 177.253602 -50.871057 -0.708865 4.113590 27.471920 -0.032930 0.653767 4.804923 -0.020787 1.037771 7.580046 -0.018886 3.148127 22.199004 0.358243 2.633293 13.739659 4.168670 3.390404 -10.321487 6.891673 7.663004 5.153626 5.444226 1.612660 -15.578322 -14.905417 -144.551590 -53.857603 171.603769 22.767755 1.002043 -9.284294 -8.441364 0.965180 0.367617 -3.361920 -8.760485 17.509488 -175.455600 -66.167478 163.508144 -1.918997 -16.567226 5.265796 2.946889 -16.076353 -6.623487 -1.076191 61.296533 -4.890973 1.592475 -7.751429 10.384709 0.236653 -0.474976 0.108731 -4.117366 -13.150538 1.384688 26.415566 76.535006 27.044639 1.001679 -12.040807 -3.793444 0.216279 0.682999 0.088238
-40.972719 62.061120 13.109926 177.260003 -50.873939 -0.713202 4.113451 27.459656 -0.042750 0.654351 4.805654 -0.020576 1.038661 7.574922 -0.021399 3.150587 22.192778 0.350680 2.742493 13.641632 4.244141 3.509453 -10.430856 6.977755 7.682423 5.146629 5.432804 1.564769 -15.669147 -14.875250 -144.221414 -53.910287 171.369753 22.507448 0.834602 -9.719531 -8.440624 0.974405 0.376186 -3.287461 -8.957311 17.472179 -175.759705 -66.265219 163.762530 -1.792111 -16.625747 5.348648 2.943208 -16.075040 -6.626159 -1.076239 61.301882 -4.885108 1.590179 -7.756800 10.378017 0.240362 -0.475204 0.110810 -4.122107 -13.147237 1.380870 26.409891 76.533667 27.042071 1.008466 -12.039904 -3.799181 0.221034 0.683641 0.091266
-40.972315 62.062086 13.108761 177.261571 -50.881874 -0.716798 4.118911 27.446493 -0.050417 0.655055 4.806897 -0.021449 1.040516 7.550281 -0.034029 3.156471 22.172457 0.335719 2.838628 13.601969 4.336397 3.647615 -10.560525 7.066440 7.710779 5.177097 5.451873 1.513492 -15.767865 -14.845872 -143.847900 -53.976058 171.111502 22.207141 0.641273 -10.239247 -8.439346 1.024759 0.400828 -3.218349 -9.165776 17.433673 -176.082392 -66.373350 164.030129 -1.652248 -16.684026 5.451018 2.941477 -16.066060 -6.623160 -1.076393 61.302971 -4.883744 1.591595 -7.763283 10.376804 0.240647 -0.480733 0.110138 -4.125571 -13.138522 1.382458 26.396117 76.536928 27.026156 1.020482 -12.039248 -3.797660 0.223694 0.682052 0.091256
-40.973253 62.062548 13.107476 177.259265 -50.888711 -0.708649 4.120453 27.437024 -0.063728 0.657844 4.786569 -0.030904 1.038592 7.580314 -0.018435 3.157558 22.161765 0.329741 2.923735 13.516490 4.390116 3.786452 -10.689749 7.152934 7.737099 5.167379 5.435292 1.463047 -15.869300 -14.825917 -143.429458 -54.050971 170.818927 21.865920 0.415249 -10.847473 -8.446549 1.012562 0.390969 -3.152240 -9.371935 17.398585 -176.424963 -66.493456 164.317830 -1.501892 -16.741701 5.569749 2.943287 -16.059513 -6.629371 -1.074875 61.306339 -4.880550 1.583821 -7.769547 10.374138 0.240023 -0.484933 0.109490 -4.125755 -13.131480 1.373408 26.398190 76.537267 27.028363 1.014534 -12.038382 -3.793266 0.211928 0.679732 0.087911
-40.973666 62.062608 13.106181 177.256694 -50.894964 -0.702926 4.122164 27.427598 -0.074167 0.657937 4.797054 -0.025299 1.041172 7.557440 -0.027200 3.160069 22.171321 0.334234 3.008073 13.432143 4.444224 3.928294 -10.820352 7.236965 7.766972 5.157789 5.425486 1.410977 -15.971739 -14.814023 -142.968004 -54.130925 170.488578 21.483040 0.144615 -11.539253 -8.450582 1.003190 0.378300 -3.096133 -9.587953 17.365651 -176.787575 -66.624815 164.625937 -1.342996 -16.798391 5.704536 2.949537 -16.055732 -6.630476 -1.091424 61.312486 -4.895341 1.582077 -7.766989 10.380029 0.238156 -0.497055 0.105091 -4.129054 -13.123729 1.370621 26.399522 76.536590 27.023920 1.014794 -12.040643 -3.794535 0.215545 0.681686 0.090708
-40.973996 62.061673 13.105351 177.253315 -50.896545 -0.696956 4.122997 27.421626 -0.081383 0.658176 4.784487 -0.030669 1.040578 7.532642 -0.037086 3.166606 22.180827 0.339438 3.097545 13.365839 4.506679 4.071145 -10.952973 7.318180 7.808001 5.164011 5.429158 1.354453 -16.076860 -14.807642 -142.473273 -54.207604 170.134319 21.053849 -0.160764 -12.313172 -8.446914 1.011162 0.371882 -3.046144 -9.809322 17.329255 -177.159411 -66.765609 164.941214 -1.173441 -16.856525 5.863223 2.959911 -16.056592 -6.631378 -1.093317 61.317867 -4.898403 1.580339 -7.762961 10.391153 0.239030 -0.507849 0.100479 -4.126561 -13.122245 1.367738 26.393725 76.537552 27.018426 1.010551 -12.042361 -3.790761 0.212381 0.682812 0.089149
-40.973406 62.060668 13.104367 177.253375 -50.900365 -0.699182 4.124556 27.417752 -0.082017 0.658159 4.773220 -0.035521 1.041525 7.545224 -0.030961 3.162644 22.130926 0.311420 3.193568 13.323085 4.584442 4.210371 -11.087280 7.396380 7.858857 5.191718 5.451725 1.296830 -16.184144 -14.808795 -141.949724 -54.276745 169.762916 20.566579 -0.489844 -13.169266 -8.437354 1.039492 0.375695 -3.004923 -10.030364 17.289199 -177.520889 -66.913226 165.246370 -0.993487 -16.917340 6.054413 2.963621 -16.056582 -6.629037 -1.102262 61.324219 -4.905970 1.594655 -7.756562 10.401218 0.237888 -0.520910 0.094301 -4.127895 -13.120506 1.373346 26.409640 76.541856 27.032364 1.003566 -12.041665 -3.794150 0.214486 0.679918 0.094079
-40.973774 62.059910 13.102937 177.257999 -50.908740 -0.699490 4.125529 27.411806 -0.083344 0.667425 4.755492 -0.036994 1.030639 7.555305 -0.032115 3.167322 22.135048 0.312778 3.280644 13.246184 4.639820 4.343802 -11.223355 7.472892 7.901808 5.186422 5.452150 1.251125 -16.292229 -14.820139 -141.384819 -54.338294 169.360169 20.013024 -0.854006 -14.090562 -8.444332 1.027829 0.358581 -2.965588 -10.254254 17.254379 -177.866901 -67.067255 165.538229 -0.802671 -16.980884 6.283072 2.964047 -16.051238 -6.631728 -1.112434 61.331596 -4.914770 1.602336 -7.754014 10.405990 0.238141 -0.527265 0.095896 -4.134174 -13.113349 1.376781 26.393156 76.548229 27.004970 1.007471 -12.043820 -3.793150 0.218506 0.681515 0.099050
-40.974185 62.058449 13.102006 177.267381 -50.913708 -0.703968 4.141356 27.392203 -0.074289 0.658429 4.766128 -0.037094 1.029072 7.551579 -0.033667 3.173844 22.132354 0.314079 3.362360 13.173977 4.697119 4.473146 -11.359641 7.548995 7.935688 5.183673 5.457798 1.227721 -16.400670 -14.840082 -140.744971 -54.390044 168.896716 19.388749 -1.267299 -15.030882 -8.456132 1.013734 0.343864 -2.940526 -10.477723 17.220076 -178.201786 -67.233436 165.821229 -0.599139 -17.049777 6.555545 2.960834 -16.048764 -6.633390 -1.118207 61.337542 -4.920682 1.607762 -7.752340 10.410287 0.233743 -0.531650 0.094137 -4.141909 -13.110721 1.378679 26.377980 76.553681 26.983434 1.011054 -12.044072 -3.793020 0.220203 0.681500 0.102124
-40.975055 62.056984 13.101069 177.273493 -50.920219 -0.703799 4.141790 27.393082 -0.075709 0.666075 4.758619 -0.037143 1.028539 7.548290 -0.032358 3.183328 22.123672 0.313958 3.438305 13.108200 4.756449 4.597492 -11.492803 7.625086 7.964543 5.184352 5.468372 1.225296 -16.511619 -14.863703 -139.972086 -54.429239 168.336436 18.692019 -1.729174 -15.933833 -8.475839 0.999551 0.330139 -2.922955 -10.701646 17.185722 -178.529000 -67.415371 166.097634 -0.385840 -17.121082 6.872810 2.961443 -16.043724 -6.637352 -1.117399 61.342845 -4.921099 1.610633 -7.755123 10.414293 0.229991 -0.531063 0.094271 -4.145032 -13.106820 1.378245 26.365691 76.558883 26.965077 1.013479 -12.043465 -3.791163 0.235711 0.681524 0.105005
-40.976528 62.055912 13.099887 177.293608 -50.930513 -0.711391 4.132418 27.398553 -0.080754 0.676018 4.749155 -0.036139 1.044667 7.528024 -0.031968 3.163523 22.148264 0.320555 3.522756 13.027622 4.808165 4.712916 -11.620426 7.701539 8.004830 5.171087 5.474361 1.237424 -16.630252 -14.887017 -138.998742 -54.450342 167.640271 17.934864 -2.237327 -16.758395 -8.478232 0.966437 0.309639 -2.921491 -10.928257 17.151859 -178.859531 -67.615494 166.373864 -0.162392 -17.189351 7.230551 2.955400 -16.032652 -6.643974 -1.113850 61.347618 -4.919324 1.609437 -7.759697 10.418338 0.229984 -0.529305 0.096116 -4.155047 -13.098551 1.372819 26.357779 76.562575 26.954668 1.003247 -12.048497 -3.783574 0.231780 0.685640 0.102571
-40.977304 62.054571 13.099119 177.303858 -50.939268 -0.716135 4.162492 27.378829 -0.063170 0.661086 4.758372 -0.035179 1.046441 7.523279 -0.030342 3.153394 22.161828 0.321230 3.560221 12.992271 4.836234 4.863596 -11.784653 7.787072 8.047256 5.158825 5.486865 1.255255 -16.760666 -14.908000 -137.774056 -54.446465 166.776663 17.139128 -2.791243 -17.487161 -8.476977 0.931828 0.288172 -2.937431 -11.160148 17.116799 -179.203341 -67.838270 166.656672 0.080930 -17.257355 7.624125 2.955741 -16.023651 -6.643959 -1.111412 61.351337 -4.918543 1.603248 -7.764010 10.422722 0.231586 -0.526680 0.097216 -4.159036 -13.091014 1.370414 26.352502 76.564799 26.948950 1.003013 -12.052884 -3.780521 0.235404 0.690487 0.102573
-40.977758 62.053257 13.098526 177.312678 -50.948375 -0.722423 4.178229 27.368373 -0.048942 0.652011 4.766927 -0.036544 1.053449 7.512963 -0.027563 3.197085 22.112862 0.333229 3.619148 12.942700 4.907944 4.934267 -11.872686 7.857948 8.046823 5.201338 5.521188 1.272447 -16.900117 -14.929648 -136.271769 -54.414515 165.726633 16.324654 -3.380762 -18.111122 -8.515851 0.895392 0.251577 -2.981060 -11.337487 17.090623 -179.583830 -68.084970 166.964990 0.348193 -17.321935 8.053358 2.958886 -16.014172 -6.641780 -1.118748 61.354016 -4.924272 1.602543 -7.766743 10.427628 0.229843 -0.525444 0.096687 -4.161742 -13.082943 1.371587 26.336023 76.568167 26.933024 1.003516 -12.056774 -3.780786 0.242298 0.694671 0.105564
-40.978590 62.051512 13.098422 177.323138 -50.954247 -0.728929 4.181817 27.364104 -0.043325 0.653007 4.765172 -0.034782 1.048494 7.517499 -0.028300 3.215133 22.090033 0.336155 3.706420 12.853418 4.970295 4.996828 -11.951624 7.930638 8.081771 5.198978 5.552572 1.289716 -17.042080 -14.955840 -134.466917 -54.348523 164.472020 15.515850 -3.988684 -18.622083 -8.526062 0.878134 0.243387 -3.035496 -11.580886 17.043602 179.954188 -68.358260 167.339280 0.628809 -17.375882 8.524314 2.960256 -16.008089 -6.640672 -1.121112 61.356447 -4.925080 1.597527 -7.769599 10.422620 0.230435 -0.522997 0.104104 -4.157825 -13.079511 1.373072 26.303838 76.571580 26.905843 1.000317 -12.057237 -3.778628 0.250536 0.696833 0.109560
-40.980100 62.049833 13.098350 177.326402 -50.960856 -0.727467 4.188372 27.360414 -0.041618 0.673052 4.736471 -0.031284 1.042027 7.524132 -0.027749 3.226008 22.078813 0.344713 3.760354 12.803714 5.023118 5.075998 -12.045342 8.009081 8.111754 5.206407 5.593668 1.310711 -17.184489 -14.986273 -132.339603 -54.238095 163.002050 14.732187 -4.602266 -19.013387 -8.548706 0.900026 0.240316 -3.107321 -11.852742 16.999941 179.367943 -68.660804 167.821381 0.910992 -17.413780 9.038036 2.962184 -16.002151 -6.642284 -1.112965 61.359403 -4.920367 1.590514 -7.773051 10.425137 0.230450 -0.520412 0.104441 -4.156792 -13.074402 1.369016 26.301632 76.572325 26.904893 0.993723 -12.060090 -3.776204 0.252817 0.700076 0.109691
